<svg width="111" height="25" viewBox="0 0 111 25" fill="none" xmlns="http://www.w3.org/2000/svg">
<g filter="url(#filter0_d_57_180)">
<path d="M4.32031 13V11.6328L5.13281 11.5156L8.75 1.625H11.0859L14.6797 11.5156L15.4922 11.6328V13H11.6172V11.6328L12.4062 11.4922L11.9062 9.92969H7.90625L7.40625 11.4922L8.19531 11.6328V13H4.32031ZM8.44531 8.25H11.3672L10.0391 4.35156L9.92969 4.00781H9.88281L9.76562 4.375L8.44531 8.25ZM19.9375 16.4141C19.5104 16.4141 19.0312 16.3594 18.5 16.25C17.9688 16.1406 17.5 15.9844 17.0938 15.7812L17.5156 14.1562C17.8802 14.3125 18.2656 14.4349 18.6719 14.5234C19.0833 14.6172 19.4661 14.6641 19.8203 14.6641C20.4297 14.6641 20.875 14.4948 21.1562 14.1562C21.4427 13.8177 21.5859 13.3464 21.5859 12.7422V12.1875C21.3359 12.5052 21.0417 12.7474 20.7031 12.9141C20.3646 13.0807 19.9766 13.1641 19.5391 13.1641C18.8516 13.1641 18.2604 12.9922 17.7656 12.6484C17.2708 12.2995 16.8932 11.8125 16.6328 11.1875C16.3724 10.5625 16.2422 9.83594 16.2422 9.00781V8.84375C16.2422 7.95312 16.3724 7.17448 16.6328 6.50781C16.8932 5.84115 17.2656 5.32292 17.75 4.95312C18.2344 4.57812 18.8151 4.39062 19.4922 4.39062C19.9974 4.39062 20.4323 4.4974 20.7969 4.71094C21.1615 4.91927 21.4714 5.21875 21.7266 5.60938L21.8906 4.54688H23.875V12.75C23.875 13.4948 23.7161 14.1406 23.3984 14.6875C23.0859 15.2344 22.6354 15.6589 22.0469 15.9609C21.4583 16.263 20.7552 16.4141 19.9375 16.4141ZM20.1797 11.3906C20.5026 11.3906 20.7812 11.3281 21.0156 11.2031C21.25 11.0729 21.4401 10.8854 21.5859 10.6406V6.96875C21.4401 6.71354 21.2474 6.51562 21.0078 6.375C20.7734 6.23438 20.5 6.16406 20.1875 6.16406C19.7969 6.16406 19.4792 6.27865 19.2344 6.50781C18.9896 6.73177 18.8099 7.04427 18.6953 7.44531C18.5807 7.84115 18.5234 8.30729 18.5234 8.84375V9.00781C18.5234 9.7474 18.651 10.3307 18.9062 10.7578C19.1615 11.1797 19.5859 11.3906 20.1797 11.3906ZM23.5859 6.19531L22.5938 4.54688H24.8672V5.92188L23.5859 6.19531ZM29.5234 13.1641C28.7161 13.1641 28.0104 12.987 27.4062 12.6328C26.8021 12.2734 26.3333 11.7812 26 11.1562C25.6719 10.5312 25.5078 9.81771 25.5078 9.01562V8.70312C25.5078 7.86458 25.6641 7.1224 25.9766 6.47656C26.2891 5.82552 26.7292 5.3151 27.2969 4.94531C27.8698 4.57031 28.5443 4.38542 29.3203 4.39062C30.0859 4.39062 30.7292 4.54167 31.25 4.84375C31.7708 5.14583 32.1667 5.58073 32.4375 6.14844C32.7083 6.71615 32.8438 7.40365 32.8438 8.21094V9.45312H27.875L27.8594 9.5C27.8906 9.86979 27.9818 10.2005 28.1328 10.4922C28.2891 10.7786 28.5078 11.0052 28.7891 11.1719C29.0703 11.3333 29.4115 11.4141 29.8125 11.4141C30.2292 11.4141 30.6172 11.362 30.9766 11.2578C31.3411 11.1484 31.6953 10.9896 32.0391 10.7812L32.6562 12.1875C32.3073 12.4688 31.8672 12.7031 31.3359 12.8906C30.8099 13.0729 30.2057 13.1641 29.5234 13.1641ZM27.8906 7.94531H30.7109V7.74219C30.7109 7.39844 30.6641 7.10417 30.5703 6.85938C30.4818 6.60938 30.3359 6.41667 30.1328 6.28125C29.9349 6.14583 29.6771 6.07812 29.3594 6.07812C29.0573 6.07812 28.8021 6.15885 28.5938 6.32031C28.3854 6.47656 28.2214 6.69271 28.1016 6.96875C27.987 7.24479 27.9089 7.55729 27.8672 7.90625L27.8906 7.94531ZM33.8125 13V11.6328L34.9062 11.3984V6.15625L33.6953 5.92188V4.54688H37.0312L37.1328 5.75781C37.4141 5.32552 37.7604 4.98958 38.1719 4.75C38.5885 4.51042 39.0625 4.39062 39.5938 4.39062C40.4323 4.39062 41.0885 4.65885 41.5625 5.19531C42.0365 5.73177 42.2734 6.57292 42.2734 7.71875V11.3984L43.3672 11.6328V13H39.0078V11.6328L39.9844 11.3984V7.72656C39.9844 7.15885 39.8724 6.75781 39.6484 6.52344C39.4245 6.28385 39.0911 6.16406 38.6484 6.16406C38.3203 6.16406 38.0339 6.23438 37.7891 6.375C37.5495 6.51042 37.349 6.70573 37.1875 6.96094V11.3984L38.1094 11.6328V13H33.8125ZM47.2734 13.1641C46.6016 13.1641 46.0234 12.9922 45.5391 12.6484C45.0599 12.2995 44.6927 11.8151 44.4375 11.1953C44.1823 10.5703 44.0547 9.84115 44.0547 9.00781V8.84375C44.0547 7.95312 44.1823 7.17448 44.4375 6.50781C44.6979 5.84115 45.0677 5.32292 45.5469 4.95312C46.026 4.57812 46.599 4.39062 47.2656 4.39062C47.7292 4.39062 48.1354 4.48438 48.4844 4.67188C48.8333 4.85417 49.1354 5.11458 49.3906 5.45312V2.42188L48.1719 2.1875V0.8125H49.3906H51.6719V11.3984L52.7656 11.6328V13H49.6953L49.5234 11.9688C49.2578 12.3594 48.9401 12.6562 48.5703 12.8594C48.2057 13.0625 47.7734 13.1641 47.2734 13.1641ZM47.9531 11.3906C48.2708 11.3906 48.5495 11.3229 48.7891 11.1875C49.0286 11.0521 49.2292 10.8568 49.3906 10.6016V7.01562C49.2344 6.74479 49.0365 6.53646 48.7969 6.39062C48.5573 6.23958 48.2812 6.16406 47.9688 6.16406C47.5885 6.16406 47.276 6.27865 47.0312 6.50781C46.7917 6.73177 46.6146 7.04427 46.5 7.44531C46.3906 7.84635 46.3359 8.3125 46.3359 8.84375V9.00781C46.3359 9.7474 46.4609 10.3307 46.7109 10.7578C46.9609 11.1797 47.375 11.3906 47.9531 11.3906ZM56.3203 13.1641C55.4818 13.1641 54.8151 12.9401 54.3203 12.4922C53.8255 12.0391 53.5781 11.4245 53.5781 10.6484C53.5781 10.1172 53.7214 9.65104 54.0078 9.25C54.2995 8.84896 54.7266 8.53385 55.2891 8.30469C55.8568 8.07552 56.5547 7.96094 57.3828 7.96094H58.5V7.33594C58.5 6.92969 58.3802 6.60156 58.1406 6.35156C57.9062 6.09635 57.5521 5.96875 57.0781 5.96875C56.8333 5.96875 56.6146 6 56.4219 6.0625C56.2292 6.11979 56.0521 6.20312 55.8906 6.3125L55.7109 7.42969H54.0703L54.0391 5.23438C54.4818 4.98438 54.9609 4.78125 55.4766 4.625C55.9922 4.46875 56.5677 4.39062 57.2031 4.39062C58.3073 4.39062 59.1797 4.64844 59.8203 5.16406C60.4609 5.67448 60.7812 6.40625 60.7812 7.35938V10.8438C60.7812 10.9583 60.7812 11.0729 60.7812 11.1875C60.7865 11.2969 60.7969 11.4036 60.8125 11.5078L61.6953 11.6328V13H58.8672C58.8099 12.8542 58.7526 12.6979 58.6953 12.5312C58.638 12.3646 58.5964 12.1979 58.5703 12.0312C58.2995 12.375 57.9792 12.651 57.6094 12.8594C57.2448 13.0625 56.8151 13.1641 56.3203 13.1641ZM56.9297 11.4766C57.2474 11.4766 57.5495 11.4062 57.8359 11.2656C58.1224 11.1198 58.3438 10.9297 58.5 10.6953V9.35938H57.375C56.875 9.35938 56.4948 9.47396 56.2344 9.70312C55.9792 9.93229 55.8516 10.2083 55.8516 10.5312C55.8516 10.8333 55.9453 11.0677 56.1328 11.2344C56.3255 11.3958 56.5911 11.4766 56.9297 11.4766Z" fill="white"/>
<path d="M62.4531 13V11.6328L63.6641 11.3984V3.23438L62.4531 3V1.625H63.6641H67.5078C68.8464 1.625 69.8906 1.88542 70.6406 2.40625C71.3906 2.92708 71.7656 3.70573 71.7656 4.74219C71.7656 5.26823 71.625 5.73958 71.3438 6.15625C71.0677 6.56771 70.6641 6.8776 70.1328 7.08594C70.5859 7.1849 70.9635 7.35938 71.2656 7.60938C71.5729 7.85938 71.8021 8.16406 71.9531 8.52344C72.1042 8.8776 72.1797 9.26562 72.1797 9.6875C72.1797 10.776 71.8203 11.6016 71.1016 12.1641C70.3828 12.7214 69.3646 13 68.0469 13H62.4531ZM65.9453 11.25H68.0469C68.651 11.25 69.112 11.1198 69.4297 10.8594C69.7474 10.5938 69.9062 10.2031 69.9062 9.6875C69.9062 9.3125 69.8464 8.9974 69.7266 8.74219C69.6068 8.48698 69.4219 8.29427 69.1719 8.16406C68.9271 8.03385 68.6094 7.96875 68.2188 7.96875H65.9453V11.25ZM65.9453 6.39062H67.5859C68.1953 6.39062 68.6641 6.26562 68.9922 6.01562C69.3203 5.76562 69.4844 5.40104 69.4844 4.92188C69.4844 4.39583 69.3177 4.00781 68.9844 3.75781C68.6562 3.50781 68.1641 3.38281 67.5078 3.38281H65.9453V6.39062ZM75.8359 13.1641C74.9974 13.1641 74.3307 12.9401 73.8359 12.4922C73.3411 12.0391 73.0938 11.4245 73.0938 10.6484C73.0938 10.1172 73.237 9.65104 73.5234 9.25C73.8151 8.84896 74.2422 8.53385 74.8047 8.30469C75.3724 8.07552 76.0703 7.96094 76.8984 7.96094H78.0156V7.33594C78.0156 6.92969 77.8958 6.60156 77.6562 6.35156C77.4219 6.09635 77.0677 5.96875 76.5938 5.96875C76.349 5.96875 76.1302 6 75.9375 6.0625C75.7448 6.11979 75.5677 6.20312 75.4062 6.3125L75.2266 7.42969H73.5859L73.5547 5.23438C73.9974 4.98438 74.4766 4.78125 74.9922 4.625C75.5078 4.46875 76.0833 4.39062 76.7188 4.39062C77.8229 4.39062 78.6953 4.64844 79.3359 5.16406C79.9766 5.67448 80.2969 6.40625 80.2969 7.35938V10.8438C80.2969 10.9583 80.2969 11.0729 80.2969 11.1875C80.3021 11.2969 80.3125 11.4036 80.3281 11.5078L81.2109 11.6328V13H78.3828C78.3255 12.8542 78.2682 12.6979 78.2109 12.5312C78.1536 12.3646 78.112 12.1979 78.0859 12.0312C77.8151 12.375 77.4948 12.651 77.125 12.8594C76.7604 13.0625 76.3307 13.1641 75.8359 13.1641ZM76.4453 11.4766C76.763 11.4766 77.0651 11.4062 77.3516 11.2656C77.638 11.1198 77.8594 10.9297 78.0156 10.6953V9.35938H76.8906C76.3906 9.35938 76.0104 9.47396 75.75 9.70312C75.4948 9.93229 75.3672 10.2083 75.3672 10.5312C75.3672 10.8333 75.4609 11.0677 75.6484 11.2344C75.8411 11.3958 76.1068 11.4766 76.4453 11.4766ZM82.1953 13V11.6328L83.2891 11.3984V6.15625L82.0781 5.92188V4.54688H85.4141L85.5 5.59375L85.5156 5.78125C85.724 5.32292 85.9818 4.97656 86.2891 4.74219C86.5964 4.50781 86.9635 4.39062 87.3906 4.39062C87.526 4.39062 87.6745 4.40365 87.8359 4.42969C87.9974 4.45052 88.1406 4.47917 88.2656 4.51562L88.0234 6.61719L86.8906 6.55469C86.5677 6.53906 86.3047 6.59375 86.1016 6.71875C85.9036 6.84375 85.7266 7.02344 85.5703 7.25781V11.3984L86.6641 11.6328V13H82.1953ZM93.8984 13.1641C93.3724 13.1641 92.9245 13.0625 92.5547 12.8594C92.1849 12.651 91.875 12.3516 91.625 11.9609L91.4609 13H89.4922V2.42188L88.2812 2.1875V0.8125H91.7656V5.44531C92.0104 5.10677 92.3099 4.84635 92.6641 4.66406C93.0234 4.48177 93.4401 4.39062 93.9141 4.39062C94.5964 4.39062 95.1745 4.57552 95.6484 4.94531C96.1276 5.3099 96.4922 5.82552 96.7422 6.49219C96.9922 7.15885 97.1172 7.94271 97.1172 8.84375V9.00781C97.1172 9.84635 96.9922 10.5781 96.7422 11.2031C96.4922 11.8229 96.1276 12.3047 95.6484 12.6484C95.1693 12.9922 94.5859 13.1641 93.8984 13.1641ZM93.2031 11.3906C93.7865 11.3906 94.2057 11.1849 94.4609 10.7734C94.7161 10.3568 94.8438 9.76823 94.8438 9.00781V8.84375C94.8438 8.29167 94.7865 7.81771 94.6719 7.42188C94.5625 7.02083 94.388 6.71094 94.1484 6.49219C93.9141 6.27344 93.6068 6.16406 93.2266 6.16406C92.8828 6.16406 92.5885 6.24479 92.3438 6.40625C92.099 6.56771 91.9062 6.78646 91.7656 7.0625V10.5938C91.9219 10.8542 92.1198 11.0521 92.3594 11.1875C92.6042 11.3229 92.8854 11.3906 93.2031 11.3906ZM101.008 13.1641C100.169 13.1641 99.5026 12.9401 99.0078 12.4922C98.513 12.0391 98.2656 11.4245 98.2656 10.6484C98.2656 10.1172 98.4089 9.65104 98.6953 9.25C98.987 8.84896 99.4141 8.53385 99.9766 8.30469C100.544 8.07552 101.242 7.96094 102.07 7.96094H103.188V7.33594C103.188 6.92969 103.068 6.60156 102.828 6.35156C102.594 6.09635 102.24 5.96875 101.766 5.96875C101.521 5.96875 101.302 6 101.109 6.0625C100.917 6.11979 100.74 6.20312 100.578 6.3125L100.398 7.42969H98.7578L98.7266 5.23438C99.1693 4.98438 99.6484 4.78125 100.164 4.625C100.68 4.46875 101.255 4.39062 101.891 4.39062C102.995 4.39062 103.867 4.64844 104.508 5.16406C105.148 5.67448 105.469 6.40625 105.469 7.35938V10.8438C105.469 10.9583 105.469 11.0729 105.469 11.1875C105.474 11.2969 105.484 11.4036 105.5 11.5078L106.383 11.6328V13H103.555C103.497 12.8542 103.44 12.6979 103.383 12.5312C103.326 12.3646 103.284 12.1979 103.258 12.0312C102.987 12.375 102.667 12.651 102.297 12.8594C101.932 13.0625 101.503 13.1641 101.008 13.1641ZM101.617 11.4766C101.935 11.4766 102.237 11.4062 102.523 11.2656C102.81 11.1198 103.031 10.9297 103.188 10.6953V9.35938H102.062C101.562 9.35938 101.182 9.47396 100.922 9.70312C100.667 9.93229 100.539 10.2083 100.539 10.5312C100.539 10.8333 100.633 11.0677 100.82 11.2344C101.013 11.3958 101.279 11.4766 101.617 11.4766Z" fill="#00683C"/>
<path d="M62.0156 14.5625H106.703V15.3438H62.0156V14.5625Z" fill="#00683C"/>
</g>
<defs>
<filter id="filter0_d_57_180" x="0.320312" y="0.8125" width="110.062" height="23.6016" filterUnits="userSpaceOnUse" color-interpolation-filters="sRGB">
<feFlood flood-opacity="0" result="BackgroundImageFix"/>
<feColorMatrix in="SourceAlpha" type="matrix" values="0 0 0 0 0 0 0 0 0 0 0 0 0 0 0 0 0 0 127 0" result="hardAlpha"/>
<feOffset dy="4"/>
<feGaussianBlur stdDeviation="2"/>
<feComposite in2="hardAlpha" operator="out"/>
<feColorMatrix type="matrix" values="0 0 0 0 0 0 0 0 0 0 0 0 0 0 0 0 0 0 0.25 0"/>
<feBlend mode="normal" in2="BackgroundImageFix" result="effect1_dropShadow_57_180"/>
<feBlend mode="normal" in="SourceGraphic" in2="effect1_dropShadow_57_180" result="shape"/>
</filter>
</defs>
</svg>
